<svg width="32" height="32" viewBox="0 0 32 32" fill="none" xmlns="http://www.w3.org/2000/svg">
<circle cx="16" cy="16" r="16" fill="#68CF57"/>
<path d="M19.9863 20.7207C19.9863 21.1855 19.8451 21.6823 19.5625 22.2109C19.2891 22.7396 18.8652 23.2454 18.291 23.7285C17.7259 24.2025 17.0104 24.5853 16.1445 24.877C15.2786 25.1686 14.3034 25.3145 13.2188 25.3145C10.9128 25.3145 9.11263 24.6445 7.81836 23.3047C6.52409 21.9557 5.87695 20.151 5.87695 17.8906C5.87695 16.3594 6.17318 15.0059 6.76562 13.8301C7.35807 12.6543 8.21484 11.7474 9.33594 11.1094C10.457 10.4622 11.7969 10.1387 13.3555 10.1387C14.3216 10.1387 15.2057 10.2799 16.0078 10.5625C16.819 10.8451 17.5026 11.2096 18.0586 11.6562C18.6237 12.1029 19.0521 12.5814 19.3438 13.0918C19.6445 13.5931 19.7949 14.0625 19.7949 14.5C19.7949 14.9466 19.6263 15.3249 19.2891 15.6348C18.9609 15.9447 18.5599 16.0996 18.0859 16.0996C17.776 16.0996 17.5163 16.0221 17.3066 15.8672C17.1061 15.7031 16.8783 15.4434 16.623 15.0879C16.1673 14.3952 15.6888 13.8757 15.1875 13.5293C14.6953 13.1829 14.0664 13.0098 13.3008 13.0098C12.1979 13.0098 11.3092 13.4427 10.6348 14.3086C9.96029 15.1654 9.62305 16.3411 9.62305 17.8359C9.62305 18.5378 9.70964 19.1849 9.88281 19.7773C10.056 20.3607 10.3066 20.862 10.6348 21.2812C10.9629 21.6914 11.3594 22.0059 11.8242 22.2246C12.2891 22.4342 12.7995 22.5391 13.3555 22.5391C14.1029 22.5391 14.7409 22.3659 15.2695 22.0195C15.8073 21.6732 16.2812 21.1445 16.6914 20.4336C16.9193 20.0143 17.1654 19.6862 17.4297 19.4492C17.694 19.2122 18.0176 19.0938 18.4004 19.0938C18.8561 19.0938 19.2344 19.2669 19.5352 19.6133C19.8359 19.9596 19.9863 20.3288 19.9863 20.7207Z" fill="#FFFEFE"/>
</svg>
